# AST/ASF file generated using VICON BodyLanguage
# -----------------------------------------------
:version 1.10
:name VICON
:units
  mass 1.0
  length 0.45
  angle deg
:documentation
   .ast/.asf automatically generated from VICON data using
   VICON BodyBuilder and BodyLanguage model FoxedUp or BRILLIANT.MOD
:root
   order TX TY TZ RX RY RZ
   axis XYZ
   position 0 0 0  
   orientation 0 0 0 
:bonedata
  begin
     id 1 
     name lhipjoint
     direction 0.522423 -0.726805 0.445902 
     length 2.25074 
     axis 0 0 0  XYZ
  end
  begin
     id 2 
     name lfemur
     direction 0.34202 -0.939693 0  
     length 6.54609  
     axis 0 0 20  XYZ
    dof rx ry rz
    limits (-160.0 20.0)
           (-70.0 70.0)
           (-60.0 70.0)
  end
  begin
     id 3 
     name ltibia
     direction 0.34202 -0.939693 0   
     length 7.7528   
     axis 0 0 20   XYZ
    dof rx
    limits (-10.0 170.0)
  end
  begin
     id 4 
     name lfoot
     direction 0.143696 -0.394801 0.90746   
     length 1.73269   
     axis -90 7.62852e-016 20   XYZ
    dof rx rz
    limits (-45.0 90.0)
           (-70.0 20.0)
  end
  begin
     id 5 
     name ltoes
     direction 1.53633e-011 -4.21912e-011 1   
     length 0.858383   
     axis -90 7.62852e-016 20   XYZ
    dof rx
    limits (-90.0 20.0)
  end
  begin
     id 6 
     name rhipjoint
     direction -0.515943 -0.73016 0.447961   
     length 2.2404  
     axis 0 0 0  XYZ 
  end
  begin
     id 7 
     name rfemur
     direction -0.34202 -0.939693 0   
     length 6.84377   
     axis 0 0 -20   XYZ
    dof rx ry rz
    limits (-160.0 20.0)
           (-70.0 70.0)
           (-70.0 60.0)
  end
  begin
     id 8 
     name rtibia
     direction -0.34202 -0.939693 0   
     length 7.57596   
     axis 0 0 -20   XYZ
    dof rx
    limits (-10.0 170.0)
 end
 begin
     id 9 
     name rfoot
     direction -0.0999372 -0.274575 0.956358   
     length 1.78783  
     axis -90 -7.62852e-016 -20   XYZ
    dof rx rz
    limits (-45.0 90.0)
           (-20.0 70.0)
  end
  begin
     id 10 
     name rtoes
     direction -1.53535e-011 -4.21895e-011 1   
     length 0.898614   
     axis -90 -7.62852e-016 -20   XYZ
    dof rx
    limits (-90.0 20.0)
  end
  begin
     id 11 
     name lowerback
     direction -0.011775 0.996164 -0.0867116   
     length 1.91499   
     axis 0 0 0   XYZ
    dof rx ry rz
    limits (-20.0 45.0)
           (-30.0 30.0)
           (-30.0 30.0)
  end
  begin
     id 12 
     name upperback
     direction -0.00189771 0.999673 -0.0254833   
     length 1.92213   
     axis 0 0 0   XYZ
    dof rx ry rz
    limits (-20.0 45.0)
           (-30.0 30.0)
           (-30.0 30.0)
  end
  begin
     id 13 
     name thorax
     direction 0.00335995 0.999878 0.0152401   
     length 1.93138   
     axis 0 0 0   XYZ
    dof rx ry rz
    limits (-20.0 45.0)
           (-30.0 30.0)
           (-30.0 30.0)
  end
  begin
     id 14 
     name lowerneck
     direction 0.00233191 0.998509 0.0545404   
     length 1.59408   
     axis 0 0 0   XYZ
    dof rx ry rz
    limits (-20.0 45.0)
           (-30.0 30.0)
           (-30.0 30.0)
  end
  begin
     id 15 
     name upperneck
     direction 0.07881 0.9956 -0.0506934   
     length 1.59344   
     axis 0 0 0   XYZ
    dof rx ry rz
    limits (-20.0 45.0)
           (-30.0 30.0)
           (-30.0 30.0)
  end
  begin
     id 16
     name head
     direction 0.0261681 0.999378 -0.0236299  
     length 1.60935  
     axis 0 0 0   XYZ
    dof rx ry rz
    limits (-20.0 45.0)
           (-30.0 30.0)
           (-30.0 30.0)
  end
  begin
     id 17 
     name lclavicle
     direction 0.96643 0.252035 0.0499195  
     length 3.82153  
     axis 0 0 0   XYZ
    dof ry rz
    limits (-20.0 10.0)
           (0.0 20.0)
  end
  begin
     id 18 
     name lhumerus
     direction 1 -4.48967e-011 -2.01614e-018   
     length 4.87796   
     axis 180 -30 -90   XYZ
    dof rx ry rz
    limits (-60.0 90.0)
           (-90.0 90.0)
           (-90.0 90.0)
  end
  begin
     id 19
     name lradius
     direction 1 -4.48958e-011 3.1409e-027   
     length 3.23169   
     axis 180 -30 -90   XYZ
    dof rx
    limits (-10.0 170.0)
  end
  begin
     id 20
     name lwrist
     direction 1 -4.48924e-011 1.0365e-027   
     length 1.61584   
     axis -2.56395e-016 90 90   XYZ
    dof ry
    limits (-180.0 0.0)
 end
  begin
     id 21 
     name lhand
     direction 1 -4.49055e-011 2.09488e-027   
     length 0.731324   
     axis -1.32723e-015 90 90   XYZ
    dof rx rz
    limits (-90.0 90.0)
           (-45.0 45.0)
  end
  begin
     id 22 
     name lfingers
     direction 1 -4.48935e-011 4.14981e-027   
     length 0.589612   
     axis -2.6545e-015 90 90   XYZ
    dof rx
    limits (0.0 90.0)
  end
  begin
     id 23
     name lthumb
     direction 0.707107 -6.35097e-011 0.707107   
     length 0.846569   
     axis -90 45 5.05613e-014   XYZ
    dof rx rz
    limits (-45.0 45.0)
           (-45.0 45.0)
  end
  begin
     id 24 
     name rclavicle
     direction -0.979337 0.201016 0.0221522   
     length 3.73827  
     axis 0 0 0   XYZ 
    dof ry rz
    limits (-10.0 20.0)
           (-20.0 0.0)
  end
  begin
     id 25 
     name rhumerus
     direction -1 -4.48971e-011 1.65907e-027  
     length 4.9143   
     axis 180 30 90   XYZ
    dof rx ry rz
    limits (-90.0 60.0)
           (-90.0 90.0)
           (-90.0 90.0)
  end
  begin
     id 26 
     name rradius
     direction -1 -4.4894e-011 2.17871e-028   
     length 3.29093   
     axis 180 30 90   XYZ
    dof rx
    limits (-10.0 170.0)
  end
  begin
     id 27 
     name rwrist
     direction -1 -4.48971e-011 1.04038e-027   
     length 1.64546   
     axis -2.56395e-016 -90 -90   XYZ
    dof ry
    limits (-180.0 0.0)
  end
  begin
     id 28
     name rhand
     direction -1 -4.49017e-011 2.08843e-027   
     length 0.54512   
     axis -1.32723e-015 -90 -90   XYZ
    dof rx rz
    limits (-90.0 90.0)
           (-45.0 45.0)
  end
  begin
     id 29
     name rfingers
     direction -1 -4.48918e-011 4.1439e-027   
     length 0.43949   
     axis -2.6545e-015 -90 -90   XYZ
    dof rx
    limits (0.0 90.0)
  end
  begin
     id 30
     name rthumb
     direction -0.707107 -6.35065e-011 0.707107   
     length 0.631022   
     axis -90 -45 -5.05613e-014   XYZ
    dof rx rz
    limits (-45.0 45.0)
           (-45.0 45.0)
  end
:hierarchy
  begin
    root lhipjoint rhipjoint lowerback
    lhipjoint lfemur
    lfemur ltibia
    ltibia lfoot
    lfoot ltoes
    rhipjoint rfemur
    rfemur rtibia
    rtibia rfoot
    rfoot rtoes
    lowerback upperback
    upperback thorax
    thorax lowerneck lclavicle rclavicle
    lowerneck upperneck
    upperneck head
    lclavicle lhumerus
    lhumerus lradius
    lradius lwrist
    lwrist lhand lthumb
    lhand lfingers
    rclavicle rhumerus
    rhumerus rradius
    rradius rwrist
    rwrist rhand rthumb
    rhand rfingers
  end

#!OML:ASF H:\BreakDance\Project 1\Capture day 1\Session 1\Male.ASF
:FULLY-SPECIFIED
:DEGREES
159
root 9.33368 16.0509 -0.117099 -53.3718 -87.8885 53.7208
lowerback -6.79595 0.354658 -1.39568
upperback 3.92328 0.696295 -1.50901
thorax 7.94867 0.297688 -0.712717
lowerneck -3.57057 -0.072672 -1.07095
upperneck 28.6527 -2.19683 4.10534
head 9.6665 -1.12985 1.34921
rclavicle 3.03147e-015 -3.18055e-015
rhumerus -29.016 3.14363 -91.1364
rradius 58.5662
rwrist 10.0535
rhand -41.3891 -29.5099
rfingers 7.12502
rthumb -14.3065 -58.9971
lclavicle 3.03147e-015 -3.18055e-015
lhumerus -25.704 -7.68024 88.6738
lradius 53.5867
lwrist -18.3684
lhand -33.2781 -38.9027
lfingers 7.12502
lthumb -6.48272 -9.02191
rfemur -16.6939 1.58514 8.46346
rtibia 43.12
rfoot -23.1718 -20.3921
rtoes -7.98951
lfemur -14.4374 2.03482 -10.3805
ltibia 36.5365
lfoot -26.4499 21.8991
ltoes -33.3143
160
root 9.34055 16.0524 -0.116756 -48.3346 -87.8071 48.747
lowerback -6.65729 0.368018 -1.28507
upperback 3.88433 0.701956 -1.55411
thorax 7.82778 0.308226 -0.821901
lowerneck -3.54402 -0.119157 -0.908959
upperneck 28.5084 -2.2538 4.06001
head 9.60943 -1.14147 1.29955
rclavicle 4.29872e-015 -1.47101e-014
rhumerus -28.9997 2.95912 -91.1499
rradius 58.1373
rwrist 9.86561
rhand -41.3002 -29.7086
rfingers 7.12502
rthumb -14.2209 -59.2018
lclavicle 4.29872e-015 -1.47101e-014
lhumerus -25.5267 -7.89307 88.6153
lradius 52.8054
lwrist -18.3302
lhand -33.2838 -39.1111
lfingers 7.12502
lthumb -6.48823 -9.23045
rfemur -16.7045 1.68151 8.54836
rtibia 43.088
rfoot -23.2565 -20.6301
rtoes -7.79767
lfemur -14.6346 2.02947 -10.3188
ltibia 36.5966
lfoot -26.3409 21.758
ltoes -33.374
161
root 9.34819 16.0543 -0.116712 -43.0382 -87.7032 43.5236
lowerback -6.4897 0.38022 -1.15651
upperback 3.83479 0.703976 -1.60155
thorax 7.6791 0.317904 -0.944125
lowerneck -3.50246 -0.158086 -0.747303
upperneck 28.3166 -2.29869 4.0316
head 9.53221 -1.1456 1.25703
rclavicle -1.01877e-015 -5.96354e-015
rhumerus -29.0104 2.75226 -91.1649
rradius 57.6842
rwrist 9.67662
rhand -41.2004 -29.8521
rfingers 7.12502
rthumb -14.1247 -59.352
lclavicle -1.01877e-015 -5.96354e-015
lhumerus -25.3685 -8.11215 88.5528
lradius 51.9807
lwrist -18.2708
lhand -33.2248 -39.3644
lfingers 7.12502
lthumb -6.43126 -9.48209
rfemur -16.7161 1.79417 8.65202
rtibia 43.0471
rfoot -23.3756 -20.8779
rtoes -7.49856
lfemur -14.8636 2.03178 -10.2407
ltibia 36.6674
lfoot -26.2085 21.6039
ltoes -33.4698
162
root 9.35615 16.0565 -0.116503 -37.857 -87.5564 38.4268
lowerback -6.31103 0.37853 -1.03512
upperback 3.78088 0.687896 -1.64373
thorax 7.51918 0.317953 -1.05905
lowerneck -3.45075 -0.175529 -0.605464
upperneck 28.0707 -2.30586 4.01267
head 9.43278 -1.13285 1.22471
rclavicle 5.46658e-016 4.77083e-015
rhumerus -29.039 2.55643 -91.1699
rradius 57.2
rwrist 9.49103
rhand -41.0977 -29.8976
rfingers 7.12502
rthumb -14.0258 -59.4044
lclavicle 5.46658e-016 4.77083e-015
lhumerus -25.2327 -8.29935 88.4952
lradius 51.1264
lwrist -18.1724
lhand -33.1167 -39.6827
lfingers 7.12502
lthumb -6.32691 -9.79719
rfemur -16.7289 1.88084 8.74742
rtibia 43
rfoot -23.5067 -21.1094
rtoes -7.13853
lfemur -15.1225 2.03838 -10.1685
ltibia 36.746
lfoot -26.0581 21.4363
ltoes -33.5928
163
root 9.36406 16.0588 -0.115536 -33.1851 -87.3618 33.8515
lowerback -6.13783 0.356464 -0.933061
upperback 3.72896 0.646328 -1.67609
thorax 7.36402 0.303961 -1.15582
lowerneck -3.40194 -0.166235 -0.50802
upperneck 27.7751 -2.26511 4.0041
head 9.31549 -1.10054 1.20794
rclavicle 2.43511e-015 -3.18055e-015
rhumerus -29.0772 2.40147 -91.1575
rradius 56.6831
rwrist 9.31915
rhand -41.0051 -29.8603
rfingers 7.12502
rthumb -13.9365 -59.3732
lclavicle 2.43511e-015 -3.18055e-015
lhumerus -25.1016 -8.4341 88.4443
lradius 50.2356
lwrist -18.0151
lhand -32.9872 -40.0717
lfingers 7.12502
lthumb -6.20187 -10.1825
rfemur -16.7457 1.91188 8.81724
rtibia 42.951
rfoot -23.6419 -21.2992
rtoes -6.72181
lfemur -15.4078 2.05912 -10.1164
ltibia 36.829
lfoot -25.8869 21.2577
ltoes -33.7662
164
root 9.37182 16.0611 -0.113489 -29.2716 -87.1249 30.046
lowerback -5.97611 0.316143 -0.852177
upperback 3.68061 0.582455 -1.70112
thorax 7.21872 0.277504 -1.23542
lowerneck -3.365 -0.130522 -0.451278
upperneck 27.4408 -2.17641 3.99642
head 9.18616 -1.04897 1.20262
rclavicle -3.77691e-015 3.18055e-015
rhumerus -29.12 2.29626 -91.1286
rradius 56.129
rwrist 9.16799
rhand -40.9001 -29.7983
rfingers 7.12502
rthumb -13.8354 -59.3182
lclavicle -3.77691e-015 3.18055e-015
lhumerus -24.9556 -8.52278 88.3955
lradius 49.2942
lwrist -17.7887
lhand -32.8808 -40.5489
lfingers 7.12502
lthumb -6.09909 -10.6567
rfemur -16.7699 1.88919 8.85479
rtibia 42.9039
rfoot -23.7916 -21.4428
rtoes -6.19938
lfemur -15.7107 2.10082 -10.0909
ltibia 36.9136
lfoot -25.7084 21.0564
ltoes -33.9631
165
root 9.37988 16.0635 -0.110669 -25.97 -86.8532 26.8618
lowerback -5.82353 0.257575 -0.79661
upperback 3.6396 0.496119 -1.71204
thorax 7.0857 0.238195 -1.28833
lowerneck -3.34258 -0.0711155 -0.435332
upperneck 27.0638 -2.04199 3.98309
head 9.04403 -0.979456 1.20611
rclavicle -2.43511e-015 -6.75868e-015
rhumerus -29.1602 2.24645 -91.0808
rradius 55.5362
rwrist 9.01398
rhand -40.7662 -29.7893
rfingers 7.12502
rthumb -13.7063 -59.3179
lclavicle -2.43511e-015 -6.75868e-015
lhumerus -24.7639 -8.56218 88.3483
lradius 48.2783
lwrist -17.5172
lhand -32.8482 -41.0924
lfingers 7.12502
lthumb -6.06767 -11.1993
rfemur -16.8026 1.84285 8.87348
rtibia 42.8612
rfoot -23.9704 -21.5662
rtoes -5.5486
lfemur -16.0268 2.16025 -10.0826
ltibia 36.9991
lfoot -25.5243 20.8234
ltoes -34.1511
166
root 9.38896 16.066 -0.107551 -23.0857 -86.5549 24.1086
lowerback -5.67414 0.185162 -0.7666
upperback 3.60632 0.392716 -1.70353
thorax 6.96203 0.188636 -1.30809
lowerneck -3.31908 0.00259915 -0.445374
upperneck 26.615 -1.87073 3.94774
head 8.87633 -0.896022 1.20925
rclavicle 8.15017e-015 3.57812e-015
rhumerus -29.2008 2.23895 -91.0114
rradius 54.9171
rwrist 8.83332
rhand -40.5951 -29.8681
rfingers 7.12502
rthumb -13.5414 -59.4078
lclavicle 8.15017e-015 3.57812e-015
lhumerus -24.4985 -8.56432 88.3019
lradius 47.1667
lwrist -17.243
lhand -32.9486 -41.5842
lfingers 7.12502
lthumb -6.16463 -11.6939
rfemur -16.8523 1.80157 8.88944
rtibia 42.8229
rfoot -24.1849 -21.6954
rtoes -4.78663
lfemur -16.3663 2.23321 -10.0796
ltibia 37.0867
lfoot -25.3246 20.5643
ltoes -34.3325
167
root 9.39929 16.0687 -0.104321 -20.4694 -86.2416 21.6368
lowerback -5.51506 0.113064 -0.741962
upperback 3.57808 0.289415 -1.68059
thorax 6.83803 0.138425 -1.30925
lowerneck -3.26285 0.0786284 -0.446483
upperneck 26.0534 -1.67796 3.87578
head 8.66382 -0.803897 1.19955
rclavicle -2.6339e-015 -3.57812e-015
rhumerus -29.2522 2.22786 -90.9185
rradius 54.2838
rwrist 8.63089
rhand -40.3846 -30.035
rfingers 7.12502
rthumb -13.3385 -59.5881
lclavicle -2.6339e-015 -3.57812e-015
lhumerus -24.1539 -8.56808 88.2553
lradius 45.9613
lwrist -16.9958
lhand -33.216 -41.929
lfingers 7.12502
lthumb -6.42276 -12.0463
rfemur -16.921 1.77465 8.91504
rtibia 42.7875
rfoot -24.4286 -21.8385
rtoes -3.95052
lfemur -16.7317 2.31104 -10.0705
ltibia 37.1795
lfoot -25.1158 20.2862
ltoes -34.4965
168
root 9.41081 16.0715 -0.100999 -17.9776 -85.9203 19.2989
lowerback -5.33716 0.055925 -0.694372
upperback 3.55311 0.203777 -1.6514
thorax 6.70711 0.0977411 -1.31427
lowerneck -3.1543 0.147465 -0.424052
upperneck 25.3582 -1.48069 3.77447
head 8.39761 -0.709127 1.17551
rclavicle -1.59028e-015 -2.54444e-014
rhumerus -29.3286 2.16396 -90.7997
rradius 53.6466
rwrist 8.41927
rhand -40.1365 -30.269
rfingers 7.12502
rthumb -13.0994 -59.8376
lclavicle -1.59028e-015 -2.54444e-014
lhumerus -23.7553 -8.60741 88.213
lradius 44.6946
lwrist -16.7897
lhand -33.5758 -42.0923
lfingers 7.12502
lthumb -6.77004 -12.2205
rfemur -17.0047 1.75711 8.95976
rtibia 42.7527
rfoot -24.6887 -21.9939
rtoes -3.09653
lfemur -17.1195 2.3926 -10.0446
ltibia 37.2816
lfoot -24.9171 19.9761
ltoes -34.5948
169
root 9.4232 16.0743 -0.0974603 -15.6634 -85.5825 17.1501
lowerback -5.1495 0.0215239 -0.611107
upperback 3.53047 0.14635 -1.63125
thorax 6.57377 0.0726788 -1.34532
lowerneck -2.9831 0.199813 -0.36699
upperneck 24.5246 -1.2957 3.64733
head 8.07638 -0.618572 1.13524
rclavicle 1.30204e-014 2.78299e-015
rhumerus -29.4454 2.01066 -90.6612
rradius 53.0136
rwrist 8.20973
rhand -39.8556 -30.5133
rfingers 7.12502
rthumb -12.8285 -60.099
lclavicle 1.30204e-014 2.78299e-015
lhumerus -23.3397 -8.70502 88.1716
lradius 43.4098
lwrist -16.6242
lhand -33.8606 -42.0555
lfingers 7.12502
lthumb -7.04502 -12.1928
rfemur -17.1007 1.7351 9.0127
rtibia 42.7167
rfoot -24.9438 -22.1634
rtoes -2.28553
lfemur -17.5332 2.48815 -10.011
ltibia 37.3966
lfoot -24.7472 19.6097
ltoes -34.6136
170
root 9.43573 16.0768 -0.0934535 -13.5793 -85.2102 15.2399
lowerback -4.96088 0.00346224 -0.493961
upperback 3.51476 0.109476 -1.62798
thorax 6.44782 0.0594849 -1.41065
lowerneck -2.75881 0.233029 -0.27431
upperneck 23.5547 -1.12788 3.4924
head 7.70467 -0.534752 1.07789
rclavicle 1.27222e-014 1.94809e-014
rhumerus -29.6057 1.7657 -90.5096
rradius 52.3796
rwrist 8.02096
rhand -39.5829 -30.6986
rfingers 7.12502
rthumb -12.5656 -60.3007
lclavicle 1.27222e-014 1.94809e-014
lhumerus -22.926 -8.85209 88.1237
lradius 42.1334
lwrist -16.499
lhand -34.0591 -41.9063
lfingers 7.12502
lthumb -7.23665 -12.0501
rfemur -17.1949 1.69542 9.06089
rtibia 42.6787
rfoot -25.1831 -22.3516
rtoes -1.53502
lfemur -17.9726 2.60482 -9.98274
ltibia 37.5271
lfoot -24.6054 19.176
ltoes -34.5997
171
root 9.44776 16.0787 -0.0885471 -11.7675 -84.788 13.6085
lowerback -4.77781 -0.0114404 -0.34968
upperback 3.51077 0.0763013 -1.64214
thorax 6.33768 0.0495172 -1.50902
lowerneck -2.51699 0.256674 -0.16586
upperneck 22.4716 -0.967005 3.32033
head 7.29809 -0.453382 1.01166
rclavicle -1.21756e-014 2.46493e-014
rhumerus -29.8037 1.46007 -90.3485
rradius 51.7365
rwrist 7.8661
rhand -39.339 -30.8308
rfingers 7.12502
rthumb -12.3305 -60.4472
lclavicle -1.21756e-014 2.46493e-014
lhumerus -22.517 -9.02615 88.0642
lradius 40.8729
lwrist -16.3988
lhand -34.1002 -41.7058
lfingers 7.12502
lthumb -7.27624 -11.8509
rfemur -17.2763 1.62547 9.09328
rtibia 42.6392
rfoot -25.4154 -22.5476
rtoes -0.807709
lfemur -18.4387 2.74771 -9.97267
ltibia 37.6746
lfoot -24.4709 18.6863
ltoes -34.6045
172
root 9.45914 16.0803 -0.0824659 -10.2736 -84.3084 12.3036
lowerback -4.60832 -0.0299469 -0.185501
upperback 3.51983 0.03861 -1.67663
thorax 6.24908 0.0384817 -1.64025
lowerneck -2.29099 0.283273 -0.0509214
upperneck 21.3095 -0.801687 3.14574
head 6.87462 -0.368534 0.943957
rclavicle 5.01931e-015 -2.10712e-014
rhumerus -30.0347 1.12131 -90.1824
rradius 51.0827
rwrist 7.73654
rhand -39.0859 -31.064
rfingers 7.12502
rthumb -12.0865 -60.6949
lclavicle 5.01931e-015 -2.10712e-014
lhumerus -22.1059 -9.21968 87.9885
lradius 39.6252
lwrist -16.2953
lhand -34.0028 -41.517
lfingers 7.12502
lthumb -7.18226 -11.6588
rfemur -17.3427 1.53306 9.10039
rtibia 42.5986
rfoot -25.6729 -22.7416
rtoes -0.00628092
lfemur -18.9378 2.91398 -9.99398
ltibia 37.8401
lfoot -24.3291 18.1581
ltoes -34.6634
173
root 9.47036 16.0816 -0.075536 -9.01714 -83.761 11.2459
lowerback -4.44797 -0.0552786 -0.00639617
upperback 3.539 -0.00764054 -1.73169
thorax 6.17608 0.0241866 -1.80217
lowerneck -2.09148 0.315356 0.0698058
upperneck 20.0923 -0.634025 2.98229
head 6.44422 -0.280628 0.879131
rclavicle -1.49089e-015 -1.19271e-015
rhumerus -30.3014 0.759033 -90.0162
rradius 50.4182
rwrist 7.61005
rhand -38.7601 -31.1607
rfingers 7.12502
rthumb -11.7723 -60.8098
lclavicle -1.49089e-015 -1.19271e-015
lhumerus -21.6925 -9.43423 87.8934
lradius 38.3951
lwrist -16.1844
lhand -33.8284 -41.3973
lfingers 7.12502
lthumb -7.01395 -11.5335
rfemur -17.3929 1.43978 9.08872
rtibia 42.5569
rfoot -25.9986 -22.9413
rtoes 0.941363
lfemur -19.4786 3.07756 -10.045
ltibia 38.0254
lfoot -24.1768 17.6068
ltoes -34.7704
